<svg xmlns="http://www.w3.org/2000/svg" width="37.092" height="37.092" viewBox="0 0 37.092 37.092">
  <g id="Group_15" data-name="Group 15" transform="translate(-9.257 -9.257)">
    <path id="Path_5" data-name="Path 5" d="M23.546,5A18.546,18.546,0,1,0,42.092,23.546,18.547,18.547,0,0,0,23.546,5Zm0,8.861a5.4,5.4,0,1,1-5.4,5.4A5.417,5.417,0,0,1,23.546,13.861Zm0,25.3a15.7,15.7,0,0,1-12.405-6.1,14.081,14.081,0,0,1,24.81,0A15.64,15.64,0,0,1,23.546,39.166Z" transform="translate(4.257 4.257)" fill="#0f75bc"/>
  </g>
</svg>
