<svg xmlns="http://www.w3.org/2000/svg" width="18" height="18" viewBox="0 0 18 18">
  <g id="Group_709" data-name="Group 709" transform="translate(-41.209 -307.291)">
    <path id="Path_166" data-name="Path 166" d="M84.991,18.907a3.4,3.4,0,1,1,1.45-6.629l3.011-4.849a9.01,9.01,0,1,0-4.46,17.122Z" transform="translate(-35.351 300.74)" fill="#fff"/>
    <path id="Path_167" data-name="Path 167" d="M375.276,298.687a8.159,8.159,0,0,1-6.576,6.576v-4.009a4.265,4.265,0,0,0,2.568-2.568h4.009m.973-.864H370.6a3.4,3.4,0,0,1-2.769,2.769v5.644a9.01,9.01,0,0,0,8.413-8.413Z" transform="translate(-317.04 19.055)" fill="#fff"/>
    <path id="Path_168" data-name="Path 168" d="M411.86,50.387,408.9,55.159a3.393,3.393,0,0,1,1.417,2.217h5.644a9,9,0,0,0-4.1-6.989Z" transform="translate(-356.75 258.347)" fill="#fff"/>
  </g>
</svg>
