<svg xmlns="http://www.w3.org/2000/svg" width="18" height="17.997" viewBox="0 0 18 17.997">
  <g id="Group_710" data-name="Group 710" transform="translate(-40 -177)">
    <path id="Path_67" data-name="Path 67" d="M276.2,288.089h-1.759a2.006,2.006,0,0,0-1.976,1.6,3.922,3.922,0,0,0,5.711,0,2.01,2.01,0,0,0-1.976-1.6Z" transform="translate(-226.324 -101.792)" fill="#fff"/>
    <path id="Path_68" data-name="Path 68" d="M310.773,199.452a1.5,1.5,0,1,0-1.061-.439A1.5,1.5,0,0,0,310.773,199.452Z" transform="translate(-261.772 -13.531)" fill="#fff"/>
    <path id="Path_69" data-name="Path 69" d="M123.493,43.162a.523.523,0,0,0-.418-.422l-1.215-.229h0a.648.648,0,0,1-.482-.409c-.077-.2-.161-.4-.255-.594a.287.287,0,0,1,.022-.287l.808-1.185a.525.525,0,0,0,0-.6,9.059,9.059,0,0,0-2.119-2.113.525.525,0,0,0-.594,0l-1.187.808a.284.284,0,0,1-.285.024,5.171,5.171,0,0,0-.592-.257h0a.636.636,0,0,1-.411-.482l-.231-1.215a.521.521,0,0,0-.416-.418,9.1,9.1,0,0,0-3,0,.519.519,0,0,0-.42.418l-.264,1.4h0a.3.3,0,0,1-.187.227,6.962,6.962,0,0,0-.773.322.294.294,0,0,1-.291-.024L110,37.325a.529.529,0,0,0-.6,0,9.1,9.1,0,0,0-2.121,2.119.525.525,0,0,0,0,.6l.808,1.183a.283.283,0,0,1,.024.287c-.09.187-.176.386-.255.594h0a.643.643,0,0,1-.482.409l-1.219.229a.525.525,0,0,0-.418.42,9.12,9.12,0,0,0,0,3,.523.523,0,0,0,.418.422l1.215.231h0a.645.645,0,0,1,.482.407c.079.21.165.411.255.594a.287.287,0,0,1-.024.289l-.808,1.185a.523.523,0,0,0,0,.594,9.06,9.06,0,0,0,2.119,2.111.519.519,0,0,0,.6,0l1.183-.806a.287.287,0,0,1,.289-.024,7.173,7.173,0,0,0,.774.323.3.3,0,0,1,.187.225l.264,1.4h0a.525.525,0,0,0,.426.42,9.1,9.1,0,0,0,3,0,.525.525,0,0,0,.422-.418l.231-1.215h0a.639.639,0,0,1,.411-.482c.2-.073.4-.161.591-.255a.285.285,0,0,1,.289.024l1.185.806a.519.519,0,0,0,.594,0,9.057,9.057,0,0,0,2.109-2.115.523.523,0,0,0,0-.594l-.806-1.185a.3.3,0,0,1-.053-.171.267.267,0,0,1,.028-.12,4.751,4.751,0,0,0,.255-.594h0a.65.65,0,0,1,.482-.407l1.215-.231h0a.523.523,0,0,0,.422-.418,8.989,8.989,0,0,0,0-3Zm-4.749,5.207a5.545,5.545,0,1,1,1.419-3.707,5.544,5.544,0,0,1-1.419,3.707Z" transform="translate(-65.619 141.336)" fill="#fff"/>
  </g>
</svg>
