<svg xmlns="http://www.w3.org/2000/svg" width="18" height="17.402" viewBox="0 0 18 17.402">
  <g id="Group_708" data-name="Group 708" transform="translate(-41.209 -648.291)">
    <path id="Path_70" data-name="Path 70" d="M350.265,306.887l-1.223-1.356-1.355,1.223a.373.373,0,0,0,.5.553l.437-.394a6.54,6.54,0,0,1-7.155,5.56.372.372,0,1,0-.079.741A7.27,7.27,0,0,0,349.363,307l.348.386a.373.373,0,0,0,.553-.5Z" transform="translate(-291.151 352.331)" fill="#fff"/>
    <path id="Path_71" data-name="Path 71" d="M363.66,51.292v.373h7.826v-.373a3.92,3.92,0,0,0-2.9-3.779,2.273,2.273,0,1,0-2.028,0,3.92,3.92,0,0,0-2.9,3.779Z" transform="translate(-312.985 605.719)" fill="#fff"/>
    <path id="Path_72" data-name="Path 72" d="M125.423,26.124l-1.193-1.382a.373.373,0,1,0-.564.487l.32.371a7.285,7.285,0,0,0-7.779,6.567.373.373,0,0,0,.336.407h.036a.373.373,0,0,0,.371-.337,6.538,6.538,0,0,1,7.07-5.888l-.465.4a.373.373,0,0,0,.487.564Z" transform="translate(-73.962 623.678)" fill="#fff"/>
    <path id="Path_73" data-name="Path 73" d="M90.771,291.413a2.273,2.273,0,1,0-2.028,0,3.919,3.919,0,0,0-2.9,3.779v.373H93.67v-.373a3.919,3.919,0,0,0-2.9-3.779Z" transform="translate(-44.635 370.128)" fill="#fff"/>
  </g>
</svg>
