<svg xmlns="http://www.w3.org/2000/svg" width="18" height="11.99" viewBox="0 0 18 11.99">
  <g id="Group_707" data-name="Group 707" transform="translate(-41.209 -616.291)">
    <path id="Path_185" data-name="Path 185" d="M24.493,24.981l-.086-.073H22.83V23.6a.355.355,0,0,0-.355-.355H10.188a.355.355,0,0,0-.355.355v9.444a.355.355,0,0,0,.355.355h.6c0-.054-.008-.108-.008-.163a2.472,2.472,0,1,1,4.944,0c0,.055,0,.109-.008.163h5.75c0-.054-.008-.108-.008-.163a2.472,2.472,0,1,1,4.944,0c0,.055,0,.109-.008.163h.861a.579.579,0,0,0,.579-.579v-4.5Zm-1.028,3.18V25.4h.749l2.756,2.757Z" transform="translate(31.376 593.046)" fill="#fff"/>
    <path id="Path_186" data-name="Path 186" d="M19.424,59.357a2,2,0,1,0,.311,2.809A2,2,0,0,0,19.424,59.357Zm-1.249,2.359a.8.8,0,1,1,.8-.8A.8.8,0,0,1,18.175,61.716Z" transform="translate(26.454 565.366)" fill="#fff"/>
    <path id="Path_187" data-name="Path 187" d="M65.826,58.918a2,2,0,1,0,2,2A2,2,0,0,0,65.826,58.918Zm0,2.8a.8.8,0,1,1,.8-.8A.8.8,0,0,1,65.826,61.716Z" transform="translate(-10.521 565.366)" fill="#fff"/>
  </g>
</svg>
